<svg version="1.1" viewBox="0.0 0.0 291.3989501312336 143.8713910761155" fill="none" stroke="none" stroke-linecap="square" stroke-miterlimit="10" xmlns:xlink="http://www.w3.org/1999/xlink" xmlns="http://www.w3.org/2000/svg"><clipPath id="p.0"><path d="m0 0l291.39896 0l0 143.87138l-291.39896 0l0 -143.87138z" clip-rule="nonzero"/></clipPath><g clip-path="url(#p.0)"><path fill="#000000" fill-opacity="0.0" d="m0 0l291.39896 0l0 143.87138l-291.39896 0z" fill-rule="evenodd"/><path fill="#000000" fill-opacity="0.0" d="m3.5800526E-4 14.260471l346.3307 0l0 148.25197l-346.3307 0z" fill-rule="evenodd"/><path fill="#ffffff" d="m19.640984 48.342968l16.234375 0l0 66.75l38.75 0l0 15.687508l-54.984375 0l0 -82.4375zm71.79199 0l56.218742 0l0 15.687496l-39.984367 0l0 17.578125l35.390617 0l0 15.6875l-35.390617 0l0 17.796875l41.562492 0l0 15.687508l-57.796867 0l0 -82.4375zm87.02949 0l24.078125 59.35937l-9.40625 -1.890625l21.828125 -57.468746l19.265625 0l-37.625 86.25l-37.640625 -86.25l19.5 0zm69.99449 0l16.23439 0l0 82.4375l-16.23439 0l0 -82.4375z" fill-rule="nonzero"/><path fill="#000000" fill-opacity="0.0" d="m224.71654 47.26739l8.094482 -27.84252" fill-rule="evenodd"/><path stroke="#ffffff" stroke-width="8.0" stroke-linejoin="round" stroke-linecap="butt" d="m224.71654 47.26739l8.094482 -27.84252" fill-rule="evenodd"/><path fill="#ffffff" d="m218.25722 51.162403c0 -4.035591 2.7709045 -7.307087 6.18898 -7.307087c1.6414185 0 3.2156067 0.7698517 4.3762665 2.1401978c1.1606598 1.3703461 1.8127136 3.2289314 1.8127136 5.166889c0 4.035595 -2.7709045 7.307087 -6.18898 7.307087c-3.4180756 0 -6.18898 -3.271492 -6.18898 -7.307087z" fill-rule="evenodd"/><path stroke="#ffffff" stroke-width="1.0" stroke-linejoin="round" stroke-linecap="butt" d="m218.25722 51.162403c0 -4.035591 2.7709045 -7.307087 6.18898 -7.307087c1.6414185 0 3.2156067 0.7698517 4.3762665 2.1401978c1.1606598 1.3703461 1.8127136 3.2289314 1.8127136 5.166889c0 4.035595 -2.7709045 7.307087 -6.18898 7.307087c-3.4180756 0 -6.18898 -3.271492 -6.18898 -7.307087z" fill-rule="evenodd"/><path fill="#000000" fill-opacity="0.0" d="m221.46457 52.333008l-12.37796 -25.858267" fill-rule="evenodd"/><path stroke="#ffffff" stroke-width="8.0" stroke-linejoin="round" stroke-linecap="butt" d="m221.46457 52.333008l-12.37796 -25.858267" fill-rule="evenodd"/><path fill="#000000" fill-opacity="0.0" d="m228.93701 50.260445l30.456696 -17.700787" fill-rule="evenodd"/><path stroke="#ffffff" stroke-width="8.0" stroke-linejoin="round" stroke-linecap="butt" d="m228.93701 50.260445l30.456696 -17.700787" fill-rule="evenodd"/><path fill="#ffffff" d="m197.44357 20.062666c0 -4.8879366 3.7438812 -8.850393 8.362198 -8.850393c2.217804 0 4.344757 0.9324503 5.912979 2.5922203c1.5682068 1.659771 2.449234 3.910904 2.449234 6.258173c0 4.8879375 -3.7438965 8.850395 -8.362213 8.850395c-4.6183167 0 -8.362198 -3.9624577 -8.362198 -8.850395z" fill-rule="evenodd"/><path stroke="#ffffff" stroke-width="1.0" stroke-linejoin="round" stroke-linecap="butt" d="m197.44357 20.062666c0 -4.8879366 3.7438812 -8.850393 8.362198 -8.850393c2.217804 0 4.344757 0.9324503 5.912979 2.5922203c1.5682068 1.659771 2.449234 3.910904 2.449234 6.258173c0 4.8879375 -3.7438965 8.850395 -8.362213 8.850395c-4.6183167 0 -8.362198 -3.9624577 -8.362198 -8.850395z" fill-rule="evenodd"/><path fill="#ffffff" d="m256.09973 31.451118c0 -3.2180367 2.7709045 -5.8267727 6.1889954 -5.8267727c1.6414185 0 3.2156067 0.6138916 4.376251 1.7066231c1.160675 1.0927315 1.8127136 2.5747929 1.8127136 4.1201496c0 3.2180367 -2.7709045 5.826771 -6.188965 5.826771c-3.4180908 0 -6.1889954 -2.6087341 -6.1889954 -5.826771z" fill-rule="evenodd"/><path stroke="#ffffff" stroke-width="1.0" stroke-linejoin="round" stroke-linecap="butt" d="m256.09973 31.451118c0 -3.2180367 2.7709045 -5.8267727 6.1889954 -5.8267727c1.6414185 0 3.2156067 0.6138916 4.376251 1.7066231c1.160675 1.0927315 1.8127136 2.5747929 1.8127136 4.1201496c0 3.2180367 -2.7709045 5.826771 -6.188965 5.826771c-3.4180908 0 -6.1889954 -2.6087341 -6.1889954 -5.826771z" fill-rule="evenodd"/><path fill="#00beba" d="m221.46457 14.049543c0 -6.862247 5.2950287 -12.425197 11.826767 -12.425197c3.1366577 0 6.1448364 1.3090794 8.362793 3.6392558c2.2179565 2.3301764 3.463974 5.490574 3.463974 8.785941c0 6.8622475 -5.2950134 12.425198 -11.826767 12.425198c-6.5317383 0 -11.826767 -5.56295 -11.826767 -12.425198z" fill-rule="evenodd"/><path stroke="#00beba" stroke-width="1.0" stroke-linejoin="round" stroke-linecap="butt" d="m221.46457 14.049543c0 -6.862247 5.2950287 -12.425197 11.826767 -12.425197c3.1366577 0 6.1448364 1.3090794 8.362793 3.6392558c2.2179565 2.3301764 3.463974 5.490574 3.463974 8.785941c0 6.8622475 -5.2950134 12.425198 -11.826767 12.425198c-6.5317383 0 -11.826767 -5.56295 -11.826767 -12.425198z" fill-rule="evenodd"/></g></svg>